<svg xmlns="http://www.w3.org/2000/svg" xml:space="preserve" width="612" height="792" viewBox="-29.104 -160.572 612 792"><path d="M455.75 207.438v-157.5H408.5c-8.699 0-15.75-7.051-15.75-15.75s7.051-15.75 15.75-15.75h126c8.698 0 15.75 7.051 15.75 15.75s-7.052 15.75-15.75 15.75h-47.25v378h47.25c8.698 0 15.75 7.052 15.75 15.75s-7.052 15.75-15.75 15.75h-126c-8.699 0-15.75-7.052-15.75-15.75s7.051-15.75 15.75-15.75h47.25v-189h-315v189H188c8.698 0 15.75 7.052 15.75 15.75s-7.052 15.75-15.75 15.75H62c-8.699 0-15.75-7.052-15.75-15.75s7.051-15.75 15.75-15.75h47.25v-378H62c-8.699 0-15.75-7.051-15.75-15.75s7.051-15.75 15.75-15.75h126c8.698 0 15.75 7.051 15.75 15.75s-7.052 15.75-15.75 15.75h-47.25v157.5h315z"/></svg>