<svg xmlns="http://www.w3.org/2000/svg" xml:space="preserve" width="612" height="792"><path d="M153.956 228.656h425.531c11.476 0 21.994-9.562 21.994-21.994s-9.562-21.994-21.994-21.994H153.956c-11.475 0-21.994 9.562-21.994 21.994s9.563 21.994 21.994 21.994zM578.531 374.962H153.956c-11.475 0-21.994 9.562-21.994 21.994 0 11.476 9.562 21.994 21.994 21.994h425.531c11.476 0 21.994-9.562 21.994-21.994-.956-12.431-10.518-21.994-22.95-21.994zM578.531 563.344H153.956c-11.475 0-21.994 9.562-21.994 21.994 0 12.431 9.562 21.993 21.994 21.993h425.531c11.476 0 21.994-9.562 21.994-21.993 0-12.432-10.518-21.994-22.95-21.994z"/><circle cx="59.288" cy="206.663" r="25.819"/><circle cx="59.288" cy="396" r="25.819"/><circle cx="59.288" cy="585.337" r="25.819"/></svg>