<svg xmlns="http://www.w3.org/2000/svg" xml:space="preserve" width="612" height="792" viewBox="-29.104 -160.572 612 792"><path d="M124.852 68.084h425.531c11.477 0 21.994-9.562 21.994-21.994s-9.562-21.994-21.994-21.994H124.852c-11.475 0-21.994 9.562-21.994 21.994s9.562 21.994 21.994 21.994zM549.427 214.391H124.852c-11.475 0-21.994 9.562-21.994 21.994 0 11.476 9.562 21.994 21.994 21.994h425.531c11.477 0 21.994-9.562 21.994-21.994-.956-12.432-10.519-21.994-22.95-21.994zM549.427 402.772H124.852c-11.475 0-21.994 9.562-21.994 21.993s9.562 21.993 21.994 21.993h425.531c11.477 0 21.994-9.562 21.994-21.993s-10.519-21.993-22.95-21.993z"/><text font-family="'Chalkboard-Bold'" font-size="100" transform="translate(6.999 80.027)">1</text><text font-family="'Chalkboard-Bold'" font-size="100" transform="translate(2 270.018)">2</text><text font-family="'Chalkboard-Bold'" font-size="100" transform="translate(2 462.508)">3</text></svg>